<svg t="1611561130281" class="icon" viewBox="0 0 1024 1024" version="1.1" xmlns="http://www.w3.org/2000/svg" p-id="1150" width="200" height="200"><path d="M716.518 392.185c-28.037 0-50.743 24.206-50.743 54.131 0 29.878 22.706 54.076 50.743 54.076 28.035 0 50.69-24.198 50.69-54.076 0.051-29.924-22.655-54.131-50.69-54.131zM513.602 392.185c-28.009 0-50.688 24.206-50.688 54.131 0 29.878 22.711 54.076 50.688 54.076 27.977 0 50.686-24.198 50.686-54.076 0-29.924-22.65-54.131-50.686-54.131z" p-id="1151"></path><path d="M817.95 93.893H209.256c-70.911 0-145.378 36.701-145.378 149.387v388.393c0 77.342 37.231 164.357 147.643 146.566h142.984c36.225 39.165 130.679 139.679 130.679 139.679 7.408 7.934 17.737 12.517 28.413 12.517 10.649 0 21.005-4.583 29.198-13.437 0.812-0.837 73.86-86.027 125.656-138.784h147.147c94.443 8.808 144.524-69.206 144.524-146.541V213.396c0.029-74.993-39.733-124.353-142.172-119.503z m82.422 149.388v388.393c0 46.304-43.817 90.735-84.688 90.735H646.56l-7.922 7.855c-42.552 42.497-102.812 108.363-126.305 135.403-28.71-30.495-104.78-110.635-126.49-134.469l-8.002-8.736H211.526c-52.679 0-87.897-44.485-87.897-90.789V243.281c0-44.182 44.592-93.606 85.628-93.606h608.745c43.464-4.853 89.648 27.509 82.37 93.606z" p-id="1152"></path><path d="M310.687 392.185c-28.005 0-50.688 24.206-50.688 54.131 0 29.878 22.739 54.076 50.688 54.076 27.984 0 50.718-24.198 50.718-54.076 0-29.924-22.683-54.131-50.718-54.131z" p-id="1153"></path></svg>