<svg t="1611561289767" class="icon" viewBox="0 0 1024 1024" version="1.1" xmlns="http://www.w3.org/2000/svg" p-id="1944" width="200" height="200"><path d="M223.3 519.7v400h-100v-400h100m40-40h-180v480h180v-480z m230.8-375.4c2.5 0 5.2 0.1 8 0.4 35.6 3.5 60.9 15.1 77.2 35.6 11.4 14.3 18.9 33.5 22.2 57.2 2.8 20.1 2.6 42.8-0.5 67.6-6.5 50.3-7.6 90.6-3.2 119.8 8.1 54.6 36.6 66.4 52.9 68.6 4.8 0.6 9.9 1 15.8 1 16.9 0 37.8-2.7 61.9-5.7 28.6-3.6 60.9-7.8 90.6-7.8 44.8 0 63.6 9.6 71.5 17.7 2.7 2.8 10.9 11.2 10.2 36.3-0.6 21.4-2.3 41.8-4 61.5-1.7 19.9-3.3 38.8-3.6 57.2-1.6 103.4-6.6 154.9-17.9 183.7-21.9 55.9-47.6 69.8-83.1 89-4.8 2.6-9.7 5.2-14.7 8.1-29 16.3-64.5 18.7-83.1 18.7-10 0-16.5-0.7-17.3-0.8l-2.1-0.3h-2.5l-409.2-1.8V539.7c36.5-17.5 100.9-57 148-133.8 36.6-59.7 41-131.1 44.9-194.1 2.2-35.7 4.3-69.5 12.3-90.1 2.6-6.6 5.5-11.2 8.7-13.5 3.6-2.6 9.3-3.9 17-3.9m0-40c-119.9 0-43.3 200.5-116.9 320.6C316.4 484.2 223.3 513 223.3 513v437.2l449 2s8.6 1.1 22.1 1.1c24.9 0 66.6-3.6 102.7-23.9 42.6-24 84.8-39.1 115.4-117.3 14-35.7 19-92.4 20.6-197.7 0.5-34.8 6.4-73.9 7.5-118.3 2-77.2-56.2-95.1-121.7-95.1-56.9 0-119.3 13.5-152.5 13.5-3.9 0-7.4-0.2-10.4-0.6-16.4-2.2-28.4-42.9-15.4-143.7 9.6-74.2 2.1-192-134.7-205.3-4.1-0.4-8.1-0.6-11.8-0.6z" fill="" p-id="1945"></path></svg>