<svg t="1611562207887" class="icon" viewBox="0 0 1024 1024" version="1.1" xmlns="http://www.w3.org/2000/svg" p-id="2901" width="200" height="200"><path d="M936.533333 505.6c0-2.56-89.6-256-424.533333-256S88.32 503.04 87.466667 505.6L85.333333 512l2.133334 6.4c0 2.56 89.6 257.066667 424.533333 257.066667s423.68-254.506667 424.533333-256L938.666667 512zM512 734.933333C232.533333 734.933333 143.786667 550.186667 128 512c15.36-36.906667 106.666667-222.933333 384-222.933333 279.253333 0 368.213333 184.746667 384 222.933333-15.786667 36.906667-106.666667 222.933333-384 222.933333z" p-id="2902"></path><path d="M512 362.666667a149.333333 149.333333 0 1 0 149.333333 149.333333 149.333333 149.333333 0 0 0-149.333333-149.333333z m0 256a106.666667 106.666667 0 1 1 106.666667-106.666667 106.666667 106.666667 0 0 1-106.666667 106.666667z" p-id="2903"></path></svg>